<?xml version="1.0" standalone="no"?>
<!DOCTYPE svg PUBLIC "-//W3C//DTD SVG 20010904//EN"
 "http://www.w3.org/TR/2001/REC-SVG-20010904/DTD/svg10.dtd">
<svg version="1.0" xmlns="http://www.w3.org/2000/svg"
 width="300.000000pt" height="300.000000pt" viewBox="0 0 300.000000 300.000000"
 preserveAspectRatio="xMidYMid meet">
<metadata>
Created by potrace 1.11, written by Peter Selinger 2001-2013
</metadata>
<g transform="translate(0.000000,300.000000) scale(0.100000,-0.100000)"
fill="#000000" stroke="none">
<path d="M1270 2886 c-577 -102 -1024 -533 -1147 -1106 -26 -121 -26 -439 0
-560 60 -279 187 -511 392 -715 275 -274 606 -409 1000 -408 227 1 397 40 600
138 400 193 683 564 771 1010 23 120 24 353 0 490 -48 285 -182 540 -391 750
-201 202 -431 329 -705 390 -101 23 -416 29 -520 11z m731 -656 c85 -16 188
-72 248 -135 172 -182 169 -459 -8 -636 -33 -32 -64 -59 -69 -59 -6 0 -15 24
-22 53 -37 158 -170 289 -321 315 -38 7 -45 13 -81 72 -48 78 -87 121 -150
162 -27 17 -48 35 -48 40 0 19 107 114 158 141 52 28 150 55 208 56 17 1 56
-3 85 -9z m-604 -209 c128 -25 265 -130 313 -242 l25 -57 62 -10 c156 -26 265
-134 294 -288 20 -108 -24 -229 -111 -307 -98 -89 -86 -87 -689 -87 -616 0
-589 -4 -687 94 -70 70 -94 126 -94 218 0 102 52 201 135 258 55 38 147 64
200 56 l43 -5 12 47 c55 219 278 364 497 323z"/>
</g>
</svg>
