<?xml version="1.0" encoding="UTF-8"?>
<svg width="980px" height="980px" viewBox="0 0 980 980" version="1.1" xmlns="http://www.w3.org/2000/svg" xmlns:xlink="http://www.w3.org/1999/xlink">
    <!-- Generator: Sketch 48.2 (47327) - http://www.bohemiancoding.com/sketch -->
    <title>Artboard</title>
    <desc>Created with Sketch.</desc>
    <defs></defs>
    <g id="Page-1" stroke="none" stroke-width="1" fill="none" fill-rule="evenodd">
        <g id="Artboard" fill-rule="nonzero">
            <g id="446f42226004c03a5c6184bce2d779f0" transform="translate(245.000000, 0.000000)">
                <path d="M383.8,735 C383.8,696 367.3,659.5 337.3,632.4 L302.2,600.8 L302.2,553.6 L302.2,443 L187.9,414.4 L187.9,553.6 L187.9,600.9 L152.8,632.4 C122.7,659.5 106.3,695.9 106.3,735 C106.3,811.5 168.6,873.8 245.1,873.8 C321.6,873.8 383.8,811.5 383.8,735 Z" id="Shape" fill="#9F2C2C"></path>
                <path d="M245,81.7 C290,81.7 326.7,118.4 326.7,163.4 L326.7,553.7 L326.7,590 L353.7,614.3 C388.9,646 408.3,688.9 408.3,735 C408.3,825.1 335,898.3 245,898.3 C155,898.3 81.7,825.1 81.7,735 C81.7,688.9 101.1,646 136.3,614.3 L163.3,590 L163.3,553.7 L163.3,163.3 C163.3,118.3 200,81.7 245,81.7 Z M245,0 C154.8,0 81.7,73.1 81.7,163.3 L81.7,553.6 C31.8,598.5 0,662.7 0,735 C0,870.3 109.7,980 245,980 C380.3,980 490,870.3 490,735 C490,662.7 458.2,598.5 408.3,553.6 L408.3,163.3 C408.3,73.1 335.2,0 245,0 Z" id="Shape" fill="#FFFFFF"></path>
            </g>
        </g>
    </g>
</svg>